<svg xmlns="http://www.w3.org/2000/svg" viewBox="0 0 512 512">
  <rect width="512" height="512" fill="#121212" rx="112" />
  <!-- Microphone -->
  <rect x="216" y="120" width="80" height="160" rx="40" fill="#10b981" />
  <path d="M152 240v40c0 57.4 46.6 104 104 104s104-46.6 104-104v-40" fill="none" stroke="#10b981" stroke-width="40" stroke-linecap="round" />
  <line x1="256" y1="384" x2="256" y2="448" stroke="#10b981" stroke-width="40" stroke-linecap="round" />
  <line x1="192" y1="448" x2="320" y2="448" stroke="#10b981" stroke-width="40" stroke-linecap="round" />
  <!-- Sound waves (Speak/Listen) -->
  <path d="M392 184c20.8 21.6 32 50.4 32 80s-11.2 58.4-32 80" fill="none" stroke="#10b981" stroke-width="32" stroke-linecap="round" />
  <path d="M440 136c34.4 35.2 56 83.2 56 128s-21.6 92.8-56 128" fill="none" stroke="#10b981" stroke-width="32" stroke-linecap="round" />
  <path d="M120 184c-20.8 21.6-32 50.4-32 80s11.2 58.4 32 80" fill="none" stroke="#10b981" stroke-width="32" stroke-linecap="round" />
  <path d="M72 136c-34.4 35.2-56 83.2-56 128s21.6 92.8 56 128" fill="none" stroke="#10b981" stroke-width="32" stroke-linecap="round" />
</svg>
